<svg width="614" height="376" viewBox="0 0 614 376" fill="none" xmlns="http://www.w3.org/2000/svg">
<g filter="url(#filter0_d_1_650)">
<mask id="path-1-outside-1_1_650" maskUnits="userSpaceOnUse" x="161.834" y="32" width="291" height="114" fill="black">
<rect fill="white" x="161.834" y="32" width="291" height="114"/>
<path d="M162.921 123.1V105.197L207.809 34.48H223.244V59.26H214.109L185.811 104.043V104.883H249.599V123.1H162.921ZM214.529 142V117.64L214.949 109.713V34.48H236.264V142H214.529ZM306.903 144.362C297.873 144.327 290.103 142.105 283.593 137.695C277.118 133.285 272.13 126.897 268.63 118.533C265.165 110.167 263.45 100.105 263.485 88.345C263.485 76.62 265.218 66.6275 268.683 58.3675C272.183 50.1075 277.17 43.825 283.645 39.52C290.155 35.18 297.908 33.01 306.903 33.01C315.898 33.01 323.633 35.18 330.108 39.52C336.618 43.86 341.623 50.16 345.123 58.42C348.623 66.645 350.355 76.62 350.32 88.345C350.32 100.14 348.57 110.22 345.07 118.585C341.605 126.95 336.635 133.338 330.16 137.748C323.685 142.157 315.933 144.362 306.903 144.362ZM306.903 125.515C313.063 125.515 317.98 122.417 321.655 116.223C325.33 110.027 327.15 100.735 327.115 88.345C327.115 80.19 326.275 73.4 324.595 67.975C322.95 62.55 320.605 58.4725 317.56 55.7425C314.55 53.0125 310.998 51.6475 306.903 51.6475C300.778 51.6475 295.878 54.71 292.203 60.835C288.528 66.96 286.673 76.13 286.638 88.345C286.638 96.605 287.46 103.5 289.105 109.03C290.785 114.525 293.148 118.655 296.193 121.42C299.238 124.15 302.808 125.515 306.903 125.515ZM364.902 123.1V105.197L409.79 34.48H425.225V59.26H416.09L387.792 104.043V104.883H451.58V123.1H364.902ZM416.51 142V117.64L416.93 109.713V34.48H438.245V142H416.51Z"/>
</mask>
<path d="M162.921 123.1V105.197L207.809 34.48H223.244V59.26H214.109L185.811 104.043V104.883H249.599V123.1H162.921ZM214.529 142V117.64L214.949 109.713V34.48H236.264V142H214.529ZM306.903 144.362C297.873 144.327 290.103 142.105 283.593 137.695C277.118 133.285 272.13 126.897 268.63 118.533C265.165 110.167 263.45 100.105 263.485 88.345C263.485 76.62 265.218 66.6275 268.683 58.3675C272.183 50.1075 277.17 43.825 283.645 39.52C290.155 35.18 297.908 33.01 306.903 33.01C315.898 33.01 323.633 35.18 330.108 39.52C336.618 43.86 341.623 50.16 345.123 58.42C348.623 66.645 350.355 76.62 350.32 88.345C350.32 100.14 348.57 110.22 345.07 118.585C341.605 126.95 336.635 133.338 330.16 137.748C323.685 142.157 315.933 144.362 306.903 144.362ZM306.903 125.515C313.063 125.515 317.98 122.417 321.655 116.223C325.33 110.027 327.15 100.735 327.115 88.345C327.115 80.19 326.275 73.4 324.595 67.975C322.95 62.55 320.605 58.4725 317.56 55.7425C314.55 53.0125 310.998 51.6475 306.903 51.6475C300.778 51.6475 295.878 54.71 292.203 60.835C288.528 66.96 286.673 76.13 286.638 88.345C286.638 96.605 287.46 103.5 289.105 109.03C290.785 114.525 293.148 118.655 296.193 121.42C299.238 124.15 302.808 125.515 306.903 125.515ZM364.902 123.1V105.197L409.79 34.48H425.225V59.26H416.09L387.792 104.043V104.883H451.58V123.1H364.902ZM416.51 142V117.64L416.93 109.713V34.48H438.245V142H416.51Z" fill="white"/>
<path d="M162.921 123.1H162.182V123.839H162.921V123.1ZM162.921 105.197L162.297 104.801L162.182 104.983V105.197H162.921ZM207.809 34.48V33.7408H207.403L207.185 34.0839L207.809 34.48ZM223.244 34.48H223.983V33.7408H223.244V34.48ZM223.244 59.26V59.9992H223.983V59.26H223.244ZM214.109 59.26V58.5208H213.702L213.484 58.8651L214.109 59.26ZM185.811 104.043L185.187 103.648L185.072 103.829V104.043H185.811ZM185.811 104.883H185.072V105.622H185.811V104.883ZM249.599 104.883H250.338V104.143H249.599V104.883ZM249.599 123.1V123.839H250.338V123.1H249.599ZM214.529 142H213.79V142.739H214.529V142ZM214.529 117.64L213.791 117.601L213.79 117.62V117.64H214.529ZM214.949 109.713L215.687 109.752L215.688 109.732V109.713H214.949ZM214.949 34.48V33.7408H214.21V34.48H214.949ZM236.264 34.48H237.003V33.7408H236.264V34.48ZM236.264 142V142.739H237.003V142H236.264ZM163.661 123.1V105.197H162.182V123.1H163.661ZM163.546 105.594L208.433 34.8761L207.185 34.0839L162.297 104.801L163.546 105.594ZM207.809 35.2192H223.244V33.7408H207.809V35.2192ZM222.505 34.48V59.26H223.983V34.48H222.505ZM223.244 58.5208H214.109V59.9992H223.244V58.5208ZM213.484 58.8651L185.187 103.648L186.436 104.437L214.734 59.6549L213.484 58.8651ZM185.072 104.043V104.883H186.551V104.043H185.072ZM185.811 105.622H249.599V104.143H185.811V105.622ZM248.86 104.883V123.1H250.338V104.883H248.86ZM249.599 122.361H162.921V123.839H249.599V122.361ZM215.268 142V117.64H213.79V142H215.268ZM215.267 117.679L215.687 109.752L214.211 109.673L213.791 117.601L215.267 117.679ZM215.688 109.713V34.48H214.21V109.713H215.688ZM214.949 35.2192H236.264V33.7408H214.949V35.2192ZM235.525 34.48V142H237.003V34.48H235.525ZM236.264 141.261H214.529V142.739H236.264V141.261ZM306.903 144.362L306.9 145.102H306.903V144.362ZM283.593 137.695L283.177 138.306L283.178 138.307L283.593 137.695ZM268.63 118.533L267.947 118.815L267.948 118.818L268.63 118.533ZM263.485 88.345L264.224 88.3472V88.345H263.485ZM268.683 58.3675L268.002 58.0791L268.001 58.0815L268.683 58.3675ZM283.645 39.52L284.055 40.1356L284.055 40.1351L283.645 39.52ZM330.108 39.52L329.696 40.134L329.698 40.1351L330.108 39.52ZM345.123 58.42L344.442 58.7084L344.443 58.7094L345.123 58.42ZM350.32 88.345L349.581 88.3428V88.345H350.32ZM345.07 118.585L344.388 118.3L344.387 118.302L345.07 118.585ZM330.16 137.748L330.576 138.358L330.576 138.358L330.16 137.748ZM321.655 116.223L322.291 116.6L322.291 116.6L321.655 116.223ZM327.115 88.345L326.376 88.345L326.376 88.3471L327.115 88.345ZM324.595 67.975L323.888 68.1895L323.889 68.1937L324.595 67.975ZM317.56 55.7425L317.064 56.29L317.067 56.2929L317.56 55.7425ZM292.203 60.835L291.569 60.4547L291.569 60.4547L292.203 60.835ZM286.638 88.345L285.899 88.3429V88.345H286.638ZM289.105 109.03L288.397 109.241L288.398 109.246L289.105 109.03ZM296.193 121.42L295.696 121.967L295.699 121.97L296.193 121.42ZM306.906 143.623C298 143.589 290.378 141.399 284.007 137.083L283.178 138.307C289.827 142.811 297.745 145.066 306.9 145.102L306.906 143.623ZM284.009 137.084C277.67 132.767 272.766 126.501 269.312 118.247L267.948 118.818C271.495 127.294 276.566 133.803 283.177 138.306L284.009 137.084ZM269.313 118.25C265.895 109.998 264.19 100.037 264.224 88.3472L262.746 88.3428C262.711 100.173 264.436 110.337 267.947 118.815L269.313 118.25ZM264.224 88.345C264.224 76.6893 265.947 66.7996 269.364 58.6534L268.001 58.0815C264.488 66.4554 262.746 76.5507 262.746 88.345H264.224ZM269.363 58.6559C272.816 50.5081 277.718 44.3487 284.055 40.1356L283.236 38.9044C276.623 43.3013 271.55 49.7069 268.002 58.0791L269.363 58.6559ZM284.055 40.1351C290.426 35.8876 298.031 33.7492 306.903 33.7492V32.2708C297.784 32.2708 289.884 34.4724 283.235 38.905L284.055 40.1351ZM306.903 33.7492C315.774 33.7492 323.361 35.8877 329.696 40.134L330.519 38.906C323.905 34.4723 316.021 32.2708 306.903 32.2708V33.7492ZM329.698 40.1351C336.071 44.3837 340.99 50.5613 344.442 58.7084L345.803 58.1316C342.255 49.7587 337.165 43.3363 330.518 38.905L329.698 40.1351ZM344.443 58.7094C347.893 66.8183 349.616 76.6883 349.581 88.3428L351.059 88.3472C351.095 76.5517 349.352 66.4717 345.803 58.1306L344.443 58.7094ZM349.581 88.345C349.581 100.07 347.841 110.048 344.388 118.3L345.752 118.87C349.299 110.392 351.059 100.21 351.059 88.345H349.581ZM344.387 118.302C340.969 126.555 336.082 132.82 329.744 137.137L330.576 138.358C337.188 133.855 342.242 127.345 345.753 118.868L344.387 118.302ZM329.744 137.137C323.41 141.451 315.808 143.623 306.903 143.623V145.102C316.058 145.102 323.961 142.864 330.576 138.358L329.744 137.137ZM306.903 126.254C313.372 126.254 318.51 122.974 322.291 116.6L321.019 115.845C317.451 121.861 312.753 124.776 306.903 124.776V126.254ZM322.291 116.6C326.067 110.234 327.89 100.782 327.854 88.3429L326.376 88.3471C326.411 100.688 324.593 109.821 321.019 115.845L322.291 116.6ZM327.854 88.345C327.854 80.1453 327.011 73.2756 325.301 67.7563L323.889 68.1937C325.54 73.5244 326.376 80.2347 326.376 88.345H327.854ZM325.303 67.7605C323.633 62.2539 321.231 58.0408 318.054 55.1921L317.067 56.2929C319.979 58.9042 322.268 62.8461 323.888 68.1895L325.303 67.7605ZM318.057 55.195C314.91 52.3406 311.18 50.9083 306.903 50.9083V52.3867C310.816 52.3867 314.191 53.6844 317.064 56.29L318.057 55.195ZM306.903 50.9083C300.471 50.9083 295.351 54.1508 291.569 60.4547L292.837 61.2153C296.404 55.2692 301.085 52.3867 306.903 52.3867V50.9083ZM291.569 60.4547C287.792 66.7488 285.934 76.0778 285.899 88.3429L287.377 88.3471C287.412 76.1822 289.263 67.1712 292.837 61.2153L291.569 60.4547ZM285.899 88.345C285.899 96.6484 286.725 103.62 288.397 109.241L289.814 108.819C288.196 103.38 287.377 96.5616 287.377 88.345H285.899ZM288.398 109.246C290.103 114.82 292.521 119.084 295.696 121.967L296.69 120.873C293.775 118.226 291.468 114.23 289.812 108.814L288.398 109.246ZM295.699 121.97C298.88 124.822 302.626 126.254 306.903 126.254V124.776C302.99 124.776 299.595 123.478 296.686 120.87L295.699 121.97ZM364.902 123.1H364.163V123.839H364.902V123.1ZM364.902 105.197L364.278 104.801L364.163 104.983V105.197H364.902ZM409.79 34.48V33.7408H409.383L409.166 34.0839L409.79 34.48ZM425.225 34.48H425.964V33.7408H425.225V34.48ZM425.225 59.26V59.9992H425.964V59.26H425.225ZM416.09 59.26V58.5208H415.682L415.465 58.8651L416.09 59.26ZM387.792 104.043L387.167 103.648L387.053 103.829V104.043H387.792ZM387.792 104.883H387.053V105.622H387.792V104.883ZM451.58 104.883H452.319V104.143H451.58V104.883ZM451.58 123.1V123.839H452.319V123.1H451.58ZM416.51 142H415.77V142.739H416.51V142ZM416.51 117.64L415.771 117.601L415.77 117.62V117.64H416.51ZM416.93 109.713L417.668 109.752L417.669 109.732V109.713H416.93ZM416.93 34.48V33.7408H416.19V34.48H416.93ZM438.245 34.48H438.984V33.7408H438.245V34.48ZM438.245 142V142.739H438.984V142H438.245ZM365.641 123.1V105.197H364.163V123.1H365.641ZM365.526 105.594L410.414 34.8761L409.166 34.0839L364.278 104.801L365.526 105.594ZM409.79 35.2192H425.225V33.7408H409.79V35.2192ZM424.485 34.48V59.26H425.964V34.48H424.485ZM425.225 58.5208H416.09V59.9992H425.225V58.5208ZM415.465 58.8651L387.167 103.648L388.417 104.437L416.715 59.6549L415.465 58.8651ZM387.053 104.043V104.883H388.531V104.043H387.053ZM387.792 105.622H451.58V104.143H387.792V105.622ZM450.84 104.883V123.1H452.319V104.883H450.84ZM451.58 122.361H364.902V123.839H451.58V122.361ZM417.249 142V117.64H415.77V142H417.249ZM417.248 117.679L417.668 109.752L416.191 109.673L415.771 117.601L417.248 117.679ZM417.669 109.713V34.48H416.19V109.713H417.669ZM416.93 35.2192H438.245V33.7408H416.93V35.2192ZM437.505 34.48V142H438.984V34.48H437.505ZM438.245 141.261H416.51V142.739H438.245V141.261Z" fill="#111827" mask="url(#path-1-outside-1_1_650)"/>
</g>
<path d="M488.293 144.548C488.127 143.482 487.13 142.753 486.063 142.919C484.999 143.085 484.27 144.087 484.436 145.153C484.718 146.974 485.072 152.678 483.107 154.972C482.682 155.468 482.167 155.766 481.522 155.885L481.701 145.022C481.726 143.444 480.458 142.151 478.879 142.151C477.301 142.151 476.019 143.46 476.057 145.047L476.569 165.662C475.891 165.553 475.358 165.256 474.917 164.74C472.951 162.446 473.309 156.742 473.587 154.921C473.753 153.855 473.025 152.854 471.961 152.687C470.893 152.521 469.896 153.25 469.73 154.316C469.59 155.212 468.462 163.201 471.948 167.279C473.146 168.68 474.77 169.477 476.665 169.599L476.885 178.573H481.145L481.455 159.824C483.308 159.68 484.893 158.89 486.072 157.51C489.559 153.43 488.431 145.444 488.29 144.548H488.293Z" fill="#D1D5DB"/>
<path d="M176.773 144.907C176.643 144.059 175.861 143.476 175.023 143.612C174.19 143.744 173.616 144.539 173.75 145.391C173.97 146.842 174.249 151.383 172.708 153.21C172.374 153.606 171.973 153.842 171.466 153.938L171.607 145.287C171.627 144.031 170.632 143 169.394 143C168.156 143 167.153 144.043 167.181 145.307L167.582 161.722C167.051 161.634 166.63 161.398 166.288 160.99C164.747 159.163 165.026 154.622 165.246 153.17C165.376 152.323 164.806 151.523 163.973 151.391C163.135 151.259 162.353 151.839 162.223 152.687C162.113 153.402 161.229 159.759 163.961 163.009C164.9 164.124 166.174 164.76 167.66 164.856L167.833 172H171.175L171.418 157.072C172.869 156.956 174.115 156.329 175.039 155.229C177.771 151.983 176.887 145.623 176.777 144.907H176.773Z" fill="#D1D5DB"/>
<path d="M307 376C476.551 376 614 327.199 614 267C614 206.801 476.551 158 307 158C137.449 158 0 206.801 0 267C0 327.199 137.449 376 307 376Z" fill="url(#paint0_linear_1_650)"/>
<path d="M326.714 154.272C326.714 154.272 326.612 160.155 326.714 160.744C326.812 161.334 324.415 164.784 323.434 164.631C322.453 164.478 320.491 164.151 320.208 163.821C319.926 163.495 320.051 162.721 320.15 162.018C320.252 161.314 320.985 154.905 320.985 154.578C320.985 154.252 325.627 153.38 326.718 154.272H326.714Z" fill="#FFD3BC"/>
<path d="M322.911 160.406C321.683 161.07 320.997 163.09 320.82 163.113C320.647 163.137 320.322 163.09 320.322 162.889C320.322 162.689 320.373 162.017 320.149 162.017C319.925 162.017 319.674 163.113 319.627 164.713C319.576 166.312 319.011 170.12 319.627 170.604C320.016 170.906 323.567 172.777 323.665 173.024C323.763 173.276 323.59 175.021 323.888 175.296C324.187 175.571 324.885 176.243 325.434 176.27C325.984 176.294 329.146 176.62 330.645 176.27C332.14 175.921 334.035 175.198 334.086 174.997C334.137 174.797 333.713 170.552 333.239 170.03C332.764 169.507 329.35 164.811 329.076 164.387C328.801 163.962 328.601 162.94 328.601 162.339C328.601 161.738 328.059 160.433 327.051 160.119C326.003 159.793 323.834 159.907 322.911 160.406Z" fill="url(#paint1_linear_1_650)"/>
<path d="M290.906 157.675C290.906 157.675 290.906 161.102 290.808 161.691C290.71 162.281 293.107 165.731 294.088 165.578C295.069 165.425 297.031 165.099 297.313 164.772C297.596 164.446 297.47 163.672 297.372 162.969C297.27 162.261 296.638 158.312 296.638 157.986C296.638 157.659 291.996 156.787 290.906 157.679V157.675Z" fill="#FFD3BC"/>
<path d="M294.064 82.0609C292.675 87.1146 290.05 104.433 290.05 112.851C290.05 121.269 289.211 142.73 289.211 145.987C289.211 149.245 288.861 157.341 289.701 157.761C290.541 158.182 292.507 159.447 295.171 159.027C297.835 158.606 298.537 156.92 298.608 155.376C298.679 153.831 299.31 142.734 299.942 138.45C300.574 134.166 302.818 125.902 304.29 120.589C305.761 115.272 309.198 104.587 310.108 104.626C311.019 104.665 316.7 128.079 317.171 129.407C317.646 130.736 318.544 149.587 318.603 151.171C318.662 152.755 318.603 154.275 319.596 154.92C320.589 155.564 323.634 157.148 325.211 157.262C326.792 157.38 327.844 154.861 328.134 154.099C328.428 153.336 328.946 128.118 328.758 121.202C328.57 114.285 329.119 101.384 328.797 97.1789C328.479 92.974 327.451 83.959 326.796 82.0609C326.145 80.1628 294.056 82.0609 294.056 82.0609H294.064Z" fill="#192B59"/>
<path d="M284.258 23.2985C285.585 21.8248 291.764 14.8454 292.993 14.5978C294.221 14.3502 297.207 13.8119 297.87 13.1241C298.537 12.4364 301.35 3.58251 300.236 1.97128C299.121 0.36005 294.817 0.815911 293.514 3.55893C292.212 6.30195 292.275 7.73634 290.124 9.63052C287.974 11.5247 278.6 19.1997 277.729 19.9738C276.858 20.748 278.589 24.5167 279.958 25.1691C281.327 25.8214 284.254 23.2985 284.254 23.2985H284.258Z" fill="url(#paint2_linear_1_650)"/>
<path d="M301.346 25.4244C298.188 26.0885 292.938 26.6505 291.207 27.2124C289.473 27.7744 282.646 30.1716 282.697 29.1498C282.748 28.1281 285.855 23.6402 285.294 23.1804C284.733 22.7206 281.371 22.1587 280.809 21.4435C280.248 20.7282 279.483 19.0463 278.722 19.2506C277.957 19.455 269.097 27.7194 269.701 30.8868C271.13 38.3496 292.075 43.7845 292.553 47.0384C293.032 50.2923 290.929 81.4952 292.075 82.6427C293.22 83.7902 305.356 88.1955 311.473 88.5767C317.591 88.9579 328.318 86.824 328.903 85.2128C329.487 83.6016 325.917 52.5991 326.333 52.5991C326.748 52.5991 326.862 62.3569 331.524 64.8799C334.6 66.5461 338.83 64.8288 339.638 63.9092C340.446 62.9896 336.746 50.0172 335.075 45.6394C333.399 41.2655 331.798 32.223 328.012 29.0162C324.226 25.8095 318.881 26.3518 317.041 25.6012C315.201 24.8467 309.029 25.389 307.471 25.2239C305.913 25.0628 301.342 25.4244 301.342 25.4244H301.346Z" fill="url(#paint3_linear_1_650)"/>
<path d="M340.803 58.0462C340.803 58.0462 335.357 59.6967 334.933 60.2626C334.509 60.8285 333.752 63.0999 334.933 64.047C336.114 64.9941 337.409 65.7015 338.81 64.609C340.21 63.5165 341.486 62.0507 342.294 61.862C343.102 61.6773 345.523 62.0232 346.539 61.6263C347.556 61.2254 349.482 53.5111 348.705 53.0435C347.928 52.5758 340.803 58.0462 340.803 58.0462Z" fill="url(#paint4_linear_1_650)"/>
<path d="M301.37 24.3829C299.612 24.0174 296.218 20.6928 295.908 17.3171C295.606 14.0278 293.189 4.78092 301.598 1.31088C309.488 -1.94302 317.611 1.4052 318.776 5.41756C319.867 9.16661 310.603 9.33559 307.209 11.776C303.815 14.2164 303.583 15.8355 302.736 15.4504C301.888 15.0653 301.374 24.3829 301.374 24.3829H301.37Z" fill="#E64D4E"/>
<path d="M301.23 17.7928C301.12 19.2979 300.739 26.5877 301.371 27.6645C301.952 28.6509 302.98 31.5157 307.009 31.39C311.043 31.2642 313.656 27.2244 313.88 26.7528C314.1 26.2812 313.629 20.4415 313.629 19.463C313.629 18.4844 308.21 16.1815 306.036 16.2444C303.863 16.3073 301.34 16.382 301.234 17.7967L301.23 17.7928Z" fill="url(#paint5_linear_1_650)"/>
<path d="M301.597 17.8164C302.052 17.8046 301.515 20.583 302.339 21.4908C303.163 22.3986 306.749 27.134 310.543 26.6703C313.824 26.2694 313.353 23.436 313.827 21.1056C314.255 18.9875 315.621 18.8067 316.099 13.2774C316.284 11.1396 317.296 7.78745 315.44 7.17046C313.584 6.54955 306.623 4.89902 304.893 7.17046C303.163 9.4419 302.998 14.8886 302.092 14.1852C301.185 13.4818 299.29 10.0589 298.176 11.9138C297.061 13.7726 299.164 17.8832 301.597 17.8164Z" fill="#F2DAD4"/>
<path d="M330.897 46.0873L319.852 60.0736C319.279 60.8006 319.805 61.8695 320.731 61.8538L341.146 61.508C341.483 61.504 341.801 61.339 342.005 61.0678L352.438 47.1051C352.933 46.4449 352.458 45.5018 351.634 45.5096L331.748 45.6747C331.415 45.6747 331.105 45.8319 330.897 46.0912V46.0873Z" fill="url(#paint6_linear_1_650)"/>
<path d="M348.356 51.719C347.281 51.8291 345.72 52.4342 345.72 52.9962C345.72 53.5582 346.971 53.7114 347.317 53.7665C347.662 53.8175 348.117 53.9276 347.988 54.1005C347.858 54.2734 347.599 55.138 346.909 54.9886C346.218 54.8354 343.193 54.7921 342.608 54.7921C342.024 54.7921 341.333 55.2048 341.29 55.6371C341.247 56.0693 341.117 56.1558 340.772 56.1794C340.427 56.203 339.799 56.5252 339.799 57.0872C339.799 57.6491 341.188 58.1561 341.188 58.3565C341.188 58.5569 343.911 60.2192 344.445 60.5297C344.978 60.8401 345.975 61.6261 346.536 61.6261C347.097 61.6261 348.039 61.0917 348.109 60.3175C348.18 59.5433 349.29 58.9813 349.302 58.6001C349.318 58.219 348.953 57.9399 348.992 57.7002C349.035 57.4605 350.004 57.1225 350.004 56.5173C350.004 55.9121 349.624 55.0987 349.569 54.8432C349.514 54.5917 349.286 54.0415 349.514 53.9708C349.738 53.9001 350.526 53.1691 350.385 52.4932C350.244 51.8173 348.855 51.664 348.356 51.7151V51.719Z" fill="#FFD3BC"/>
<path d="M294.605 161.353C295.833 162.017 296.52 164.037 296.696 164.061C296.869 164.084 297.194 164.037 297.194 163.837C297.194 163.636 297.143 162.964 297.367 162.964C297.591 162.964 297.842 164.061 297.889 165.66C297.94 167.259 298.505 171.067 297.889 171.551C297.5 171.853 293.949 173.724 293.851 173.972C293.753 174.223 293.926 175.968 293.628 176.243C293.33 176.518 292.631 177.19 292.082 177.218C291.532 177.241 288.37 177.567 286.871 177.218C285.376 176.868 283.481 176.145 283.43 175.944C283.379 175.744 283.803 171.5 284.277 170.977C284.752 170.454 288.166 165.758 288.441 165.334C288.715 164.909 288.915 163.888 288.915 163.286C288.915 162.685 289.457 161.38 290.465 161.066C291.513 160.74 293.683 160.854 294.605 161.353Z" fill="url(#paint7_linear_1_650)"/>
<defs>
<filter id="filter0_d_1_650" x="162.921" y="33.01" width="293.093" height="115.788" filterUnits="userSpaceOnUse" color-interpolation-filters="sRGB">
<feFlood flood-opacity="0" result="BackgroundImageFix"/>
<feColorMatrix in="SourceAlpha" type="matrix" values="0 0 0 0 0 0 0 0 0 0 0 0 0 0 0 0 0 0 127 0" result="hardAlpha"/>
<feOffset dx="4.4352" dy="4.4352"/>
<feComposite in2="hardAlpha" operator="out"/>
<feColorMatrix type="matrix" values="0 0 0 0 0.0666667 0 0 0 0 0.0941176 0 0 0 0 0.152941 0 0 0 1 0"/>
<feBlend mode="normal" in2="BackgroundImageFix" result="effect1_dropShadow_1_650"/>
<feBlend mode="normal" in="SourceGraphic" in2="effect1_dropShadow_1_650" result="shape"/>
</filter>
<linearGradient id="paint0_linear_1_650" x1="307" y1="-49.198" x2="307" y2="279.757" gradientUnits="userSpaceOnUse">
<stop stop-color="#E5E7EB"/>
<stop offset="0.48" stop-color="#E5E7EB"/>
<stop offset="1" stop-color="white"/>
</linearGradient>
<linearGradient id="paint1_linear_1_650" x1="327.75" y1="156.548" x2="327.784" y2="176.508" gradientUnits="userSpaceOnUse">
<stop stop-color="#4D73FF"/>
<stop offset="0.98" stop-color="#0F3EE7"/>
</linearGradient>
<linearGradient id="paint2_linear_1_650" x1="304.038" y1="14.8061" x2="287.157" y2="12.9256" gradientUnits="userSpaceOnUse">
<stop stop-color="#F2BFAD"/>
<stop offset="1" stop-color="#F2DAD4"/>
</linearGradient>
<linearGradient id="paint3_linear_1_650" x1="309.624" y1="4.99019" x2="309.749" y2="88.9458" gradientUnits="userSpaceOnUse">
<stop stop-color="#4D73FF"/>
<stop offset="0.98" stop-color="#0F3EE7"/>
</linearGradient>
<linearGradient id="paint4_linear_1_650" x1="341.737" y1="60.5613" x2="342.599" y2="75.1447" gradientUnits="userSpaceOnUse">
<stop stop-color="#F2BFAD"/>
<stop offset="0.7" stop-color="#F2DAD4"/>
</linearGradient>
<linearGradient id="paint5_linear_1_650" x1="306.229" y1="20.8738" x2="311.826" y2="32.5425" gradientUnits="userSpaceOnUse">
<stop stop-color="#F2BFAD"/>
<stop offset="1" stop-color="#F2DAD4"/>
</linearGradient>
<linearGradient id="paint6_linear_1_650" x1="332.376" y1="46.7279" x2="342.115" y2="64.6195" gradientUnits="userSpaceOnUse">
<stop stop-color="#F6DBDB"/>
<stop offset="1" stop-color="#EB9A99"/>
</linearGradient>
<linearGradient id="paint7_linear_1_650" x1="291.834" y1="157.496" x2="291.868" y2="177.456" gradientUnits="userSpaceOnUse">
<stop stop-color="#4D73FF"/>
<stop offset="0.98" stop-color="#0F3EE7"/>
</linearGradient>
</defs>
</svg>
